<svg x="0" y="0" width="1024" height="1024" version="1.1"
    xmlns="http://www.w3.org/2000/svg"
    xmlns:xlink="http://www.w3.org/1999/xlink">
    <title>hand card icon</title>
    <desc>hand card icon from the IconExperience.com O-Collection. Copyright by INCORS GmbH (www.incors.com).</desc>
    <g fill="#252525" stroke="none" stroke-width="1" stroke-linecap="butt" stroke-linejoin="miter" stroke-miterlimit="4" stroke-dasharray="" stroke-dashoffset="0" font-family="serif" font-weight="400" font-size="16" text-anchor="start" mix-blend-mode="normal">
        <g>
            <g>
                <g>
                    <path d="M864,480l128,0l0,448l-128,0c-35.3,0 -64,-28.7 -64,-64l0,-320c0,-35.3 28.7,-64 64,-64z" id="curve2"/>
                    <path d="M544,384l32,0c47.4,0 95.3,25.5 125.5,61.5c14.8,17.6 29.3,39.7 46,55.4c1,0.9 1.8,1.7 2.7,2.7c6,6.4 8.9,8.4 17.8,8.4c1.8,0 3.6,0.1 5.4,0.2c-3.5,10 -5.4,20.7 -5.4,31.8l0,32l0,0l0,0c-30.2,0 -48.9,-12.1 -64.4,-28.5c-19.2,-18.1 -35,-41.6 -51.1,-60.9c-18,-21.4 -48.1,-38.6 -76.5,-38.6l-32,0l0,0l-128,0c0,35.3 28.8,64 64,64l64,0l0,64l-64,0c-70.6,0 -128,-57.4 -128,-128c0,-35.2 28.7,-64 64,-64l128,0z M768,832l0,32c0,11.1 1.9,21.8 5.4,31.8c-1.8,0.1 -3.6,0.2 -5.4,0.2l-33.8,0c-20.6,0 -38.8,4.3 -57.2,13.5l-74,37c-18.4,9.2 -36.6,13.5 -57.2,13.5l-129.8,0c-0.4,0 -0.8,0 -1.3,0c-57.4,-1.2 -105.7,-38.9 -120.8,-94.3c-0.1,-0.5 -0.2,-0.8 -0.3,-1.3l-48.1,-192.4l65.9,0l44.3,176.9c7.6,28 31.3,46.5 60.3,47.1l129.8,0c10.8,0 19,-1.9 28.6,-6.8l74,-36.9c27.4,-13.7 55.2,-20.3 85.8,-20.3z" id="curve1"/>
                    <path d="M128,64l320,0c35.3,0 64,28.8 64,64l0,224l-96,0c-52.9,0 -96,43.1 -96,96c0,88.2 71.8,160 160,160l23.4,0c-11.1,19.1 -31.8,32 -55.4,32l-320,0c-35.2,0 -64,-28.8 -64,-64l0,-448c0,-35.3 28.7,-64 64,-64z" id="curve0"/>
                </g>
            </g>
        </g>
    </g>
</svg>